<?xml version="1.0" encoding="UTF-8"?>
<svg xmlns="http://www.w3.org/2000/svg" viewBox="0 0 512 512">
  <rect width="512" height="512"/>
  <path d="M177.61,156.63c.29-2.3,2.02-4.32,5.18-4.32h4.61c2.3,0,4.03,1.15,4.9,2.88l63.37,135.95h.86l63.37-135.95c.87-1.73,2.3-2.88,4.9-2.88h4.61c3.17,0,4.9,2.02,5.18,4.32l33.99,193.55c.86,4.03-1.44,6.62-5.19,6.62h-26.21c-2.59,0-4.9-2.3-5.47-4.32l-16.99-109.16h-.86l-50.4,113.2c-.58,1.73-2.3,3.17-4.9,3.17h-5.19c-2.59,0-4.03-1.44-4.9-3.17l-50.98-113.2h-.86l-16.71,109.16c-.29,2.02-2.59,4.32-5.19,4.32h-25.92c-3.74,0-6.05-2.59-5.47-6.62l34.28-193.55Z" fill="#7df"/>
</svg>